<?xml version="1.0" encoding="UTF-8" standalone="no"?>
<!-- Created with Inkscape (http://www.inkscape.org/) -->

<svg
   width="7.3817711mm"
   height="6.8436437mm"
   viewBox="0 0 7.381771 6.8436434"
   version="1.1"
   id="svg404"
   inkscape:version="1.2.2 (b0a8486541, 2022-12-01)"
   sodipodi:docname="reactive-graph-c.svg"
   xmlns:inkscape="http://www.inkscape.org/namespaces/inkscape"
   xmlns:sodipodi="http://sodipodi.sourceforge.net/DTD/sodipodi-0.dtd"
   xmlns="http://www.w3.org/2000/svg"
   xmlns:svg="http://www.w3.org/2000/svg">
  <sodipodi:namedview
     id="namedview406"
     pagecolor="#505050"
     bordercolor="#ffffff"
     borderopacity="1"
     inkscape:showpageshadow="0"
     inkscape:pageopacity="0"
     inkscape:pagecheckerboard="1"
     inkscape:deskcolor="#505050"
     inkscape:document-units="mm"
     showgrid="false"
     inkscape:zoom="14.638496"
     inkscape:cx="8.641598"
     inkscape:cy="21.108725"
     inkscape:window-width="2490"
     inkscape:window-height="1371"
     inkscape:window-x="0"
     inkscape:window-y="0"
     inkscape:window-maximized="1"
     inkscape:current-layer="layer1" />
  <defs
     id="defs401" />
  <g
     inkscape:label="Ebene 1"
     inkscape:groupmode="layer"
     id="layer1"
     transform="translate(-2.6468173,-2.9139225)">
    <path
       style="fill:#dc0073;stroke:#04e762;stroke-width:0.00463724"
       d="m 12.066133,33.777772 c -2.1136401,-0.687931 -2.7569234,-3.32309 -1.192996,-4.887018 0.880618,-0.880618 2.170509,-1.122745 3.294367,-0.618388 l 0.569767,0.255697 2.840328,-1.893258 2.84033,-1.893259 -0.196452,-0.511992 c -0.268302,-0.699245 -0.273479,-1.774919 -0.01213,-2.520413 l 0.196067,-0.559282 -0.234056,-0.184109 c -0.204054,-0.160509 -0.219281,-0.212655 -0.118781,-0.40681 0.0634,-0.122486 0.17813,-0.294905 0.254952,-0.383154 0.128716,-0.147859 0.160855,-0.1483 0.409467,-0.0056 0.263788,0.151393 0.279127,0.146844 0.689638,-0.204538 0.768979,-0.658218 1.353687,-0.870426 2.521348,-0.915073 l 1.031597,-0.03944 1.126534,-1.880015 1.126535,-1.880014 -0.252328,-0.36411 c -1.143124,-1.649527 0.01009,-3.863981 2.016097,-3.871405 0.716897,-0.0027 1.252003,0.242661 1.780887,0.816433 1.558221,1.69047 0.05054,4.449761 -2.204829,4.035192 -0.294691,-0.05417 -0.539797,-0.09244 -0.54468,-0.08504 -0.0049,0.0074 -0.501284,0.836513 -1.103111,1.842482 l -1.09423,1.829034 0.233627,0.146011 c 0.466296,0.291424 1.205751,1.135463 1.465661,1.672957 0.146268,0.302481 0.298428,0.569199 0.338132,0.592706 0.0554,0.0328 5.226207,-0.606929 5.910763,-0.73128 0.07626,-0.01385 0.191941,-0.234157 0.257115,-0.489643 0.219482,-0.860368 0.766433,-1.420014 1.560804,-1.597033 1.188319,-0.264807 2.413021,0.77742 2.319402,1.973822 -0.08301,1.060803 -0.781192,1.781871 -1.796424,1.855307 -0.6336,0.04583 -1.022191,-0.100683 -1.520987,-0.573471 l -0.29738,-0.281875 -3.083942,0.405587 c -1.696168,0.223074 -3.113932,0.430865 -3.150587,0.461757 -0.03665,0.03089 -0.131126,0.366531 -0.209937,0.745864 -0.166463,0.801212 -0.394502,1.286081 -0.875795,1.86215 -0.386424,0.462518 -0.408647,0.550787 -0.197432,0.784177 0.134459,0.148577 0.117794,0.185891 -0.186773,0.418196 -0.411262,0.313685 -0.478464,0.315852 -0.671233,0.02165 l -0.152938,-0.233415 -0.510285,0.196939 c -0.361461,0.139503 -0.735691,0.196787 -1.283158,0.196418 -0.953188,-6.76e-4 -1.639852,-0.240528 -2.465854,-0.861445 L 20.90991,25.58058 19.004871,26.828585 c -1.047771,0.686404 -2.265247,1.484504 -2.705503,1.773558 -0.886929,0.58232 -0.881335,0.567685 -0.551651,1.443339 0.21625,0.574368 0.156777,1.634467 -0.122225,2.178665 -0.271909,0.530363 -0.903613,1.143753 -1.453413,1.411277 -0.545281,0.265324 -1.524722,0.331536 -2.105943,0.142366 z"
       id="path624"
       transform="scale(0.26458333)" />
    <path
       style="fill:#dc0073;stroke:#04e762;stroke-width:0.00463724"
       d="m 31.700732,36.810153 c -1.326568,-0.421351 -2.029988,-1.942582 -1.519495,-3.28609 0.101242,-0.266449 0.164185,-0.560521 0.139872,-0.653493 -0.05012,-0.191661 0.407858,-0.512969 0.883666,-0.619962 0.159405,-0.03584 0.485461,-0.115478 0.724569,-0.176963 1.069542,-0.275025 2.200658,0.278693 2.76415,1.353142 0.258593,0.493078 0.243121,1.564857 -0.03006,2.082209 -0.257475,0.487611 -0.722127,0.948546 -1.177951,1.168527 -0.396346,0.191277 -1.371871,0.263771 -1.784751,0.13263 z"
       id="path626"
       transform="scale(0.26458333)" />
    <path
       style="fill:#dc0073;stroke:#04e762;stroke-width:0.00463724"
       d="m 15.329552,18.830118 c -0.49682,-0.150321 -1.122832,-0.836159 -1.25983,-1.380226 -0.486688,-1.932812 1.83023,-3.266025 3.234844,-1.861411 0.531613,0.531613 0.691481,1.053934 0.541474,1.7691 -0.08224,0.392095 -0.08291,0.574332 -0.0026,0.702972 0.08659,0.138649 0.06506,0.234598 -0.1068,0.47595 -0.228806,0.321328 -0.382859,0.372712 -0.566589,0.188982 -0.08526,-0.08526 -0.172789,-0.08621 -0.353564,-0.0038 -0.357841,0.163043 -1.122297,0.218812 -1.486961,0.108476 z"
       id="path628"
       transform="scale(0.26458333)" />
    <path
       style="fill:#dc0073;stroke:#04e762;stroke-width:0.00163951"
       d="m 18.712122,19.899725 c -0.438213,-0.326812 -0.445837,-0.336232 -0.368988,-0.455959 0.05707,-0.08892 0.441813,-0.609297 0.493794,-0.667882 0.01331,-0.015 0.203903,0.10588 0.423538,0.268627 l 0.399335,0.295904 -0.05803,0.09002 c -0.07325,0.11362 -0.529905,0.721912 -0.541951,0.721912 -0.0049,0 -0.161394,-0.113678 -0.347695,-0.252618 z"
       id="path630"
       transform="scale(0.26458333)" />
    <path
       style="fill:#dc0073;stroke:#04e762;stroke-width:0.00163951"
       d="m 27.078443,28.406435 c -0.09815,-0.137369 -0.217387,-0.319419 -0.26497,-0.404554 l -0.08651,-0.154791 0.378159,-0.265526 0.378159,-0.265527 0.120054,0.115596 c 0.137902,0.132781 0.456245,0.594499 0.456245,0.661728 0,0.06103 -0.686511,0.564703 -0.767911,0.563396 -0.01912,-3.08e-4 -0.115072,-0.112952 -0.213222,-0.250322 z"
       id="path632"
       transform="scale(0.26458333)" />
    <path
       style="fill:#dc0073;stroke:#04e762;stroke-width:0.00163951"
       d="m 28.167373,29.924139 c -0.153219,-0.204979 -0.27858,-0.388728 -0.27858,-0.408331 0,-0.03415 0.585923,-0.466596 0.740601,-0.546613 0.06877,-0.03558 0.09014,-0.01673 0.275739,0.243195 0.110655,0.154968 0.234899,0.337764 0.276096,0.406213 l 0.07491,0.124453 -0.231096,0.169054 c -0.270768,0.198074 -0.544849,0.384718 -0.564949,0.384718 -0.0078,0 -0.139497,-0.16771 -0.292716,-0.372689 z"
       id="path634"
       transform="scale(0.26458333)" />
    <path
       style="fill:#dc0073;stroke:#04e762;stroke-width:0.00163951"
       d="M 29.400638,31.652716 C 29.286612,31.498739 29.16494,31.32177 29.130255,31.259451 l -0.06306,-0.113306 0.156938,-0.142867 c 0.202211,-0.184082 0.525125,-0.405024 0.601069,-0.41126 0.03882,-0.0032 0.150729,0.122586 0.325185,0.365485 0.146295,0.20369 0.26599,0.382843 0.26599,0.398119 0,0.02768 -0.601914,0.468168 -0.737234,0.53952 -0.06444,0.03398 -0.09083,0.01101 -0.278503,-0.242426 z"
       id="path636"
       transform="scale(0.26458333)" />
  </g>
</svg>
