<?xml version="1.0" encoding="UTF-8" standalone="no"?>
<!-- Created with Inkscape (http://www.inkscape.org/) -->

<svg
   width="210mm"
   height="297mm"
   viewBox="0 0 210 297"
   version="1.1"
   id="svg555"
   inkscape:version="1.2.2 (b0a8486541, 2022-12-01)"
   sodipodi:docname="reactive-graph-b.svg"
   xmlns:inkscape="http://www.inkscape.org/namespaces/inkscape"
   xmlns:sodipodi="http://sodipodi.sourceforge.net/DTD/sodipodi-0.dtd"
   xmlns="http://www.w3.org/2000/svg"
   xmlns:svg="http://www.w3.org/2000/svg">
  <sodipodi:namedview
     id="namedview557"
     pagecolor="#505050"
     bordercolor="#ffffff"
     borderopacity="1"
     inkscape:showpageshadow="0"
     inkscape:pageopacity="0"
     inkscape:pagecheckerboard="1"
     inkscape:deskcolor="#505050"
     inkscape:document-units="mm"
     showgrid="false"
     inkscape:zoom="20.70196"
     inkscape:cx="34.900078"
     inkscape:cy="23.524343"
     inkscape:window-width="2490"
     inkscape:window-height="1371"
     inkscape:window-x="0"
     inkscape:window-y="0"
     inkscape:window-maximized="1"
     inkscape:current-layer="layer1" />
  <defs
     id="defs552" />
  <g
     inkscape:label="Ebene 1"
     inkscape:groupmode="layer"
     id="layer1">
    <path
       style="fill:#dc0073;stroke-width:0.0126747"
       d="m 4.122681,4.7347313 c -0.09481,-0.04112 -0.152187,-0.129035 -0.152187,-0.233204 0,-0.08454 0.02282,-0.135628 0.08603,-0.19267 0.05782,-0.05218 0.111258,-0.06711 0.207144,-0.0579 0.06995,0.0067 0.110359,0.03143 0.168148,0.102834 0.07306,0.09027 0.05752,0.250024 -0.03249,0.333982 -0.0691,0.06446 -0.189258,0.08485 -0.276643,0.04696 z"
       id="path687" />
    <path
       style="fill:#dc0073;stroke-width:0.0126747"
       d="m 6.150534,6.8516124 c -0.139055,-0.03652 -0.252679,-0.103533 -0.36169,-0.213318 -0.11641,-0.117236 -0.171808,-0.21195 -0.20898,-0.357293 -0.06523,-0.255061 0.0024,-0.526786 0.179051,-0.719594 0.09318,-0.101692 0.185758,-0.16378 0.319436,-0.214237 0.09453,-0.03568 0.117543,-0.03926 0.255966,-0.03977 0.167449,-6.35e-4 0.225139,0.01237 0.371302,0.08365 0.121362,0.05918 0.272957,0.212877 0.335178,0.339827 0.08749,0.178512 0.108034,0.364846 0.06065,0.550131 -0.03717,0.145343 -0.09257,0.240057 -0.20898,0.357293 -0.11081,0.111597 -0.224231,0.177668 -0.367521,0.214092 -0.09409,0.02392 -0.281868,0.02353 -0.374408,-7.67e-4 z"
       id="path689" />
    <path
       style="fill:#dc0073;stroke-width:0.0126747"
       d="M 7.579403,3.9558323 C 7.499443,3.9361023 7.436951,3.8974123 7.376545,3.8302303 7.20089,3.6348593 7.265901,3.3268213 7.506077,3.2164814 c 0.08426,-0.03871 0.238834,-0.03754 0.31998,0.0024 0.07595,0.03741 0.152616,0.1140759 0.190026,0.1900259 0.02378,0.04827 0.02925,0.07985 0.02901,0.16724 -2.58e-4,0.09156 -0.0053,0.117367 -0.03387,0.171912 -0.03945,0.07542 -0.119032,0.151245 -0.192418,0.183328 -0.06527,0.02853 -0.17665,0.03989 -0.239398,0.02441 z"
       id="path691" />
    <path
       style="fill:#dc0073;stroke-width:0.0126747"
       d="m 9.434023,5.8030984 c -0.02398,-0.0076 -0.06759,-0.03701 -0.0969,-0.06525 -0.08061,-0.07765 -0.102117,-0.182612 -0.05727,-0.279485 0.05989,-0.129362 0.204339,-0.190446 0.328099,-0.138749 0.176928,0.07391 0.22129,0.288137 0.08655,0.417938 -0.07718,0.07435 -0.164202,0.09625 -0.260473,0.06554 z"
       id="path693" />
    <path
       style="fill:#dc0073;stroke-width:0.0126747"
       d="M 8.461363,9.4978474 C 8.312041,9.4444874 8.216752,9.3176514 8.20655,9.1586814 8.19865,9.0355744 8.2255,8.9574894 8.30604,8.8693704 c 0.08271,-0.0905 0.164762,-0.12669 0.286378,-0.126319 0.115057,3.44e-4 0.2073,0.04238 0.286592,0.130568 0.170716,0.189877 0.109162,0.496157 -0.122225,0.60817 -0.08391,0.04062 -0.207836,0.04736 -0.295418,0.01606 z"
       id="path695" />
    <path
       style="fill:#dc0073;stroke-width:0.0126747"
       d="M 3.277014,8.7044004 C 3.0293,8.6237404 2.871288,8.3660774 2.917091,8.1174984 c 0.06397,-0.347194 0.429379,-0.533869 0.742297,-0.379216 0.149931,0.0741 0.246078,0.198759 0.280453,0.363621 0.04808,0.230594 -0.06769,0.463663 -0.283405,0.570551 -0.07573,0.03752 -0.09857,0.04261 -0.205602,0.04578 -0.07697,0.0023 -0.139677,-0.0027 -0.17382,-0.01383 z"
       id="path697" />
  </g>
</svg>
